<svg width="138" height="34" viewBox="0 0 138 34" fill="none" xmlns="http://www.w3.org/2000/svg">
    <g clip-path="url(#clip0_915_2184)">
        <mask id="mask0_915_2184" style="mask-type:luminance" maskUnits="userSpaceOnUse" x="0" y="0" width="35" height="34">
            <path d="M26.1898 0H8.05839C3.60787 0 0 3.58172 0 8V26C0 30.4183 3.60787 34 8.05839 34H26.1898C30.6403 34 34.2482 30.4183 34.2482 26V8C34.2482 3.58172 30.6403 0 26.1898 0Z" fill="white"/>
        </mask>
        <g mask="url(#mask0_915_2184)">
            <path d="M26.1898 0H8.05839C3.60787 0 0 3.58172 0 8V26C0 30.4183 3.60787 34 8.05839 34H26.1898C30.6403 34 34.2482 30.4183 34.2482 26V8C34.2482 3.58172 30.6403 0 26.1898 0Z" fill="#3990FB"/>
            <path d="M64.8366 3.86994L26.7183 13.3029C18.0816 15.4402 12.8254 24.1236 14.9783 32.6978L24.4801 70.5398C26.633 79.114 35.3798 84.3321 44.0165 82.1948L82.1348 72.7618C90.7715 70.6245 96.0278 61.9411 93.8748 53.367L84.373 15.5249C82.2201 6.95075 73.4733 1.73263 64.8366 3.86994Z" fill="#FF7528"/>
            <g filter="url(#filter0_d_915_2184)">
                <path d="M12.8027 20.7154C13.128 20.7659 13.4427 20.8409 13.7508 20.943C13.9901 21.0465 14.2162 21.1602 14.433 21.296C14.6644 21.468 14.8733 21.6555 15.0663 21.865C15.3639 22.2413 15.6031 22.6408 15.8133 23.0598C16.0183 23.5162 16.1849 23.9817 16.333 24.4563C16.4573 24.8584 16.5697 25.2709 16.6438 25.6834C16.6622 25.7881 16.6807 25.8942 16.698 25.9989C15.4617 26.4489 14.1805 26.8019 12.8596 26.9817C11.9804 27.0683 11.105 27.0683 10.2298 26.9791C9.66253 26.895 9.11117 26.7696 8.57435 26.586C8.13406 26.4075 7.72155 26.1955 7.3315 25.942C7.0631 25.7429 6.81583 25.5295 6.59106 25.2929C6.49851 25.1713 6.41786 25.0446 6.34515 24.914C6.29226 24.7744 6.25128 24.636 6.21955 24.4925C6.205 24.3128 6.20368 24.1356 6.21955 23.9572C6.25656 23.8007 6.30414 23.6507 6.36364 23.502C6.4562 23.3404 6.56067 23.1865 6.67702 23.0378C6.96658 22.73 7.29314 22.4611 7.64219 22.2063C8.28743 21.7835 8.97763 21.4266 9.70616 21.1344C10.2298 20.9508 10.764 20.8163 11.3166 20.7322C11.8125 20.6831 12.3056 20.6753 12.8027 20.7154ZM44.4323 7.68645C44.4059 7.71748 44.3794 7.74722 44.3531 7.77566C44.3794 7.74722 44.4045 7.71619 44.4323 7.68645ZM19.9518 5.24901C20.7095 5.35763 21.4393 5.54124 22.1507 5.79727C22.8633 6.08951 23.5311 6.44639 24.1617 6.86276C24.7356 7.27654 25.2592 7.73558 25.7272 8.24764C26.1847 8.80107 26.5682 9.39459 26.8829 10.0256C27.1605 10.6527 27.3562 11.298 27.4778 11.9639C27.5716 12.6997 27.5677 13.438 27.4738 14.1751C27.3152 15.1022 27.0428 16.0048 26.6554 16.8763C26.0101 16.8685 25.3676 16.8142 24.7263 16.7431C23.5971 16.597 22.4892 16.3733 21.3877 16.1069C20.2335 15.8302 19.0937 15.4888 17.9884 15.0815C17.0826 14.7272 16.2154 14.3212 15.4181 13.7975C14.983 13.4794 14.5904 13.1303 14.2334 12.741C13.8592 12.2781 13.5512 11.7893 13.288 11.2669C13.0738 10.782 12.9059 10.2842 12.8081 9.77218C12.7869 9.53296 12.7908 9.29762 12.8146 9.06099C12.8662 8.82823 12.9376 8.60583 13.0302 8.38471C13.2139 8.03429 13.4321 7.70584 13.6873 7.39292C14.0324 7.01922 14.4132 6.67914 14.8336 6.37139C15.2673 6.09079 15.7248 5.85287 16.2113 5.65245C16.7495 5.46883 17.3008 5.33435 17.868 5.24901C18.5649 5.18048 19.2577 5.18177 19.9518 5.24901ZM43.3799 -14.3501C43.4116 -14.3139 43.4434 -14.2777 43.4738 -14.2402C43.4421 -14.2777 43.4103 -14.3139 43.3799 -14.3501ZM27.6444 -23.5995C27.2239 -23.5788 26.8048 -23.5258 26.3897 -23.4611C26.2151 -23.4352 26.0472 -23.3965 25.878 -23.3564C25.6969 -23.3124 25.5223 -23.2284 25.3518 -23.1624C25.0013 -23.0254 24.8757 -22.5288 25.0872 -22.256C25.0872 -22.256 25.0887 -22.2547 25.0887 -22.2534C25.2407 -22.0568 25.4509 -21.9262 25.7259 -21.9262C25.7893 -21.9262 25.8568 -21.9353 25.9229 -21.9521C25.9691 -21.965 26.0155 -21.9806 26.0604 -22C26.4267 -22.1215 26.8022 -22.1913 27.1896 -22.2418C27.9591 -22.318 28.7233 -22.3129 29.4929 -22.2353C30.9301 -22.0491 32.3409 -21.6418 33.6789 -21.1478C35.4599 -20.4625 37.1073 -19.5496 38.649 -18.5009C40.4406 -17.2531 42.0789 -15.8372 43.479 -14.2337C44.677 -12.823 45.666 -11.2946 46.4421 -9.66142C47.2724 -7.84595 47.8476 -5.94642 48.1464 -4.00035C48.3315 -2.65426 48.3567 -1.29783 48.1741 0.048254C47.9574 1.35943 47.5594 2.62536 46.9974 3.85119C46.6735 4.52359 46.3046 5.174 45.8828 5.80373C45.4214 6.49164 44.8978 7.14465 44.3503 7.77825C42.7598 9.58856 40.9365 11.223 38.9069 12.6415C37.147 13.8427 35.255 14.8746 33.2188 15.6595C31.8834 16.1483 30.5004 16.5323 29.0764 16.7405C29.432 15.7655 29.6541 14.7544 29.7441 13.7302C29.8591 12.4126 29.6554 11.0613 29.1847 9.81225C28.7075 8.54504 27.9393 7.39162 26.9675 6.38302C26.4875 5.88777 25.9335 5.45847 25.3531 5.05892C24.7805 4.66453 24.1736 4.32317 23.5271 4.03352C22.1427 3.41414 20.6288 3.08698 19.0831 3.03914C18.3428 3.01715 17.5997 3.09215 16.8724 3.2137C16.1189 3.33783 15.4009 3.58223 14.7093 3.87059C14.0747 4.13567 13.5128 4.50031 12.964 4.88694C12.3717 5.3046 11.8891 5.81795 11.4356 6.35587C11.0165 6.855 10.7163 7.43171 10.4836 8.01747C10.3593 8.33169 10.3078 8.67305 10.2694 9.00408C10.2271 9.34157 10.2258 9.67001 10.276 10.0075C10.3712 10.6605 10.5471 11.2837 10.8181 11.898C11.1104 12.5652 11.462 13.2014 11.9248 13.7845C12.3426 14.3121 12.8159 14.7996 13.3634 15.2199C13.9399 15.6595 14.5692 16.0436 15.2356 16.3629C15.8649 16.6642 16.5327 16.9073 17.1951 17.1414C17.9012 17.3909 18.631 17.5927 19.3595 17.7827C20.8364 18.1707 22.3464 18.4409 23.8721 18.6206C24.4328 18.6866 24.9961 18.7306 25.5606 18.7487C25.5249 18.803 25.4906 18.856 25.4562 18.909C25.0199 19.5775 24.5742 20.2357 24.056 20.8564C23.0286 22.015 21.8519 23.0779 20.5522 23.9947C19.936 24.4084 19.2948 24.7873 18.631 25.13C18.5636 24.786 18.4736 24.4459 18.3771 24.1059C18.2185 23.5408 18.0162 22.9835 17.7689 22.4443C17.4886 21.8314 17.1687 21.2495 16.7217 20.7193C16.5115 20.4697 16.2894 20.2396 16.0356 20.0262C15.7803 19.809 15.4855 19.6202 15.1906 19.4482C14.8799 19.2672 14.5295 19.1431 14.1884 19.0176C13.8314 18.8883 13.4519 18.8146 13.0738 18.7642C12.6877 18.7125 12.3069 18.684 11.9182 18.684C11.5466 18.684 11.1805 18.7241 10.8128 18.7681C10.0341 18.8624 9.30819 19.068 8.58759 19.3448C7.96086 19.5866 7.36587 19.8749 6.79468 20.2072C6.14151 20.59 5.51214 21.0413 5.00177 21.5702C4.49669 22.0938 4.12782 22.6809 3.92949 23.352C3.83561 23.674 3.80653 24.0192 3.80521 24.3503C3.80389 24.5429 3.83958 24.7356 3.86867 24.9257C3.89776 25.1145 3.94008 25.2968 4.00354 25.4791C4.21641 26.0985 4.6329 26.6209 5.11682 27.0929C5.32573 27.2998 5.57431 27.4782 5.81759 27.6515C6.16929 27.8997 6.53156 28.1221 6.92293 28.32C8.22926 28.9756 9.73392 29.2057 11.2161 29.229C11.9763 29.2432 12.734 29.1566 13.4837 29.0506C14.2386 28.9407 14.9791 28.7557 15.7063 28.545C16.136 28.4221 16.5618 28.2838 16.9822 28.1338C16.9876 28.2023 16.9915 28.2696 16.9941 28.3381C17.0087 28.7118 17.0232 29.0868 17.0377 29.4618C17.0629 30.0954 16.998 30.7432 16.9108 31.3742C16.7059 32.6453 16.3224 33.8789 15.7816 35.0672C15.2647 36.125 14.634 37.131 13.9491 38.1086C13.649 38.5379 13.3317 38.9558 13.0276 39.3835C12.8569 39.624 12.6652 39.8594 12.5159 40.1114C12.4285 40.2579 12.3413 40.4023 12.2541 40.5473C12.1535 40.714 12.0689 40.8848 11.9856 41.0595C11.9856 41.0595 11.9869 41.0595 11.9869 41.0579C11.9856 41.0595 11.9856 41.0585 11.9856 41.0595C11.9777 41.0777 11.9685 41.0984 11.9579 41.1175C11.9658 41.1019 11.9737 41.0862 11.9817 41.0711C11.9261 41.1863 11.8706 41.3009 11.8058 41.4135C11.6379 41.706 11.6657 42.0526 11.9314 42.2914C12.2474 42.5733 12.7591 42.5658 13.0751 42.2914C13.2589 42.1313 13.4625 41.9904 13.6582 41.8444C13.7507 41.7717 13.8354 41.6838 13.92 41.6035C14.084 41.45 14.2492 41.305 14.3947 41.1382C14.6102 40.8898 14.8323 40.6453 15.0426 40.3933C15.2184 40.1826 15.3758 39.9614 15.5423 39.7457C15.8306 39.3719 16.0897 38.9815 16.3582 38.596C16.4666 38.4422 16.5564 38.2766 16.653 38.1163C16.7772 37.9185 16.9148 37.7193 17.0245 37.5137C17.3075 36.9732 17.5958 36.4314 17.8496 35.8767C18.3812 34.7026 18.7315 33.4703 18.9272 32.2134C19.0846 31.2087 19.1586 30.1975 19.1109 29.1825C19.0885 28.7221 19.074 28.2618 19.025 27.8041C19.0078 27.6398 18.9907 27.4756 18.9721 27.3127C19.2286 27.1924 19.4798 27.067 19.7297 26.939C20.9686 26.2976 22.1202 25.5089 23.1754 24.6438C24.2385 23.7723 25.2037 22.8089 26.071 21.7783C26.5827 21.168 27.0072 20.5098 27.4369 19.8517C27.692 19.4586 27.9406 19.0629 28.172 18.6594C28.2037 18.6569 28.2355 18.653 28.2672 18.6491C29.0036 18.5689 29.7295 18.4487 30.4462 18.2832C31.1919 18.1086 31.9217 17.8771 32.6384 17.625C34.0227 17.1349 35.3462 16.5246 36.6076 15.8224C39.0483 14.4647 41.2512 12.7591 43.2001 10.8764C44.1653 9.94414 45.0498 8.9459 45.8723 7.91144C46.6972 6.87311 47.406 5.76752 47.9613 4.59471C48.5272 3.40767 48.9476 2.17149 49.2002 0.900402C49.4553 -0.375858 49.5162 -1.67411 49.4369 -2.96718C49.3575 -4.28612 49.1024 -5.60763 48.756 -6.88907C48.4095 -8.16921 47.9335 -9.41444 47.3597 -10.6274C46.2187 -13.0415 44.5474 -15.2061 42.5297 -17.0979C41.4323 -18.1311 40.2133 -19.0582 38.9373 -19.909C37.6508 -20.7715 36.2691 -21.5228 34.8042 -22.1176C33.3074 -22.7228 31.7181 -23.2141 30.0957 -23.465C29.469 -23.562 28.8344 -23.6111 28.1998 -23.6111C28.0147 -23.6111 27.8295 -23.6072 27.6444 -23.5995Z" fill="white"/>
                <mask id="mask1_915_2184" style="mask-type:luminance" maskUnits="userSpaceOnUse" x="2" y="-25" width="49" height="69">
                    <path d="M50.1409 -24.5H2.79785V43.5H50.1409V-24.5Z" fill="white"/>
                    <path d="M12.8027 20.7154C13.128 20.7659 13.4427 20.8409 13.7508 20.943C13.9901 21.0465 14.2162 21.1602 14.433 21.296C14.6644 21.468 14.8733 21.6555 15.0663 21.865C15.3639 22.2413 15.6031 22.6408 15.8133 23.0598C16.0183 23.5162 16.1849 23.9817 16.333 24.4563C16.4573 24.8584 16.5697 25.2709 16.6438 25.6834C16.6622 25.7881 16.6807 25.8942 16.698 25.9989C15.4617 26.4489 14.1805 26.8019 12.8596 26.9817C11.9804 27.0683 11.105 27.0683 10.2298 26.9791C9.66253 26.895 9.11117 26.7696 8.57435 26.586C8.13406 26.4075 7.72155 26.1955 7.3315 25.942C7.0631 25.7429 6.81583 25.5295 6.59106 25.2929C6.49851 25.1713 6.41786 25.0446 6.34515 24.914C6.29226 24.7744 6.25128 24.636 6.21955 24.4925C6.205 24.3128 6.20368 24.1356 6.21955 23.9572C6.25656 23.8007 6.30414 23.6507 6.36364 23.502C6.4562 23.3404 6.56067 23.1865 6.67702 23.0378C6.96658 22.73 7.29314 22.4611 7.64219 22.2063C8.28743 21.7835 8.97763 21.4266 9.70616 21.1344C10.2298 20.9508 10.764 20.8163 11.3166 20.7322C11.8125 20.6831 12.3056 20.6753 12.8027 20.7154ZM44.4323 7.68645C44.4059 7.71748 44.3794 7.74722 44.3531 7.77566C44.3794 7.74722 44.4045 7.71619 44.4323 7.68645ZM19.9518 5.24901C20.7095 5.35763 21.4393 5.54124 22.1507 5.79727C22.8633 6.08951 23.5311 6.44639 24.1617 6.86276C24.7356 7.27654 25.2592 7.73558 25.7272 8.24764C26.1847 8.80107 26.5682 9.39459 26.8829 10.0256C27.1605 10.6527 27.3562 11.298 27.4778 11.9639C27.5716 12.6997 27.5677 13.438 27.4738 14.1751C27.3152 15.1022 27.0428 16.0048 26.6554 16.8763C26.0101 16.8685 25.3676 16.8142 24.7263 16.7431C23.5971 16.597 22.4892 16.3733 21.3877 16.1069C20.2335 15.8302 19.0937 15.4888 17.9884 15.0815C17.0826 14.7272 16.2154 14.3212 15.4181 13.7975C14.983 13.4794 14.5904 13.1303 14.2334 12.741C13.8592 12.2781 13.5512 11.7893 13.288 11.2669C13.0738 10.782 12.9059 10.2842 12.8081 9.77218C12.7869 9.53296 12.7908 9.29762 12.8146 9.06099C12.8662 8.82823 12.9376 8.60583 13.0302 8.38471C13.2139 8.03429 13.4321 7.70584 13.6873 7.39292C14.0324 7.01922 14.4132 6.67914 14.8336 6.37139C15.2673 6.09079 15.7248 5.85287 16.2113 5.65245C16.7495 5.46883 17.3008 5.33435 17.868 5.24901C18.5649 5.18048 19.2577 5.18177 19.9518 5.24901ZM43.3799 -14.3501C43.4116 -14.3139 43.4434 -14.2777 43.4738 -14.2402C43.4421 -14.2777 43.4103 -14.3139 43.3799 -14.3501ZM27.6444 -23.5995C27.2239 -23.5788 26.8048 -23.5258 26.3897 -23.4611C26.2151 -23.4352 26.0472 -23.3965 25.878 -23.3564C25.6969 -23.3124 25.5223 -23.2284 25.3518 -23.1624C25.0013 -23.0254 24.8757 -22.5288 25.0872 -22.256C25.0872 -22.256 25.0887 -22.2547 25.0887 -22.2534C25.2407 -22.0568 25.4509 -21.9262 25.7259 -21.9262C25.7893 -21.9262 25.8568 -21.9353 25.9229 -21.9521C25.9691 -21.965 26.0155 -21.9806 26.0604 -22C26.4267 -22.1215 26.8022 -22.1913 27.1896 -22.2418C27.9591 -22.318 28.7233 -22.3129 29.4929 -22.2353C30.9301 -22.0491 32.3409 -21.6418 33.6789 -21.1478C35.4599 -20.4625 37.1073 -19.5496 38.649 -18.5009C40.4406 -17.2531 42.0789 -15.8372 43.479 -14.2337C44.677 -12.823 45.666 -11.2946 46.4421 -9.66142C47.2724 -7.84595 47.8476 -5.94642 48.1464 -4.00035C48.3315 -2.65426 48.3567 -1.29783 48.1741 0.048254C47.9574 1.35943 47.5594 2.62536 46.9974 3.85119C46.6735 4.52359 46.3046 5.174 45.8828 5.80373C45.4214 6.49164 44.8978 7.14465 44.3503 7.77825C42.7598 9.58856 40.9365 11.223 38.9069 12.6415C37.147 13.8427 35.255 14.8746 33.2188 15.6595C31.8834 16.1483 30.5004 16.5323 29.0764 16.7405C29.432 15.7655 29.6541 14.7544 29.7441 13.7302C29.8591 12.4126 29.6554 11.0613 29.1847 9.81225C28.7075 8.54504 27.9393 7.39162 26.9675 6.38302C26.4875 5.88777 25.9335 5.45847 25.3531 5.05892C24.7805 4.66453 24.1736 4.32317 23.5271 4.03352C22.1427 3.41414 20.6288 3.08698 19.0831 3.03914C18.3428 3.01715 17.5997 3.09215 16.8724 3.2137C16.1189 3.33783 15.4009 3.58223 14.7093 3.87059C14.0747 4.13567 13.5128 4.50031 12.964 4.88694C12.3717 5.3046 11.8891 5.81795 11.4356 6.35587C11.0165 6.855 10.7163 7.43171 10.4836 8.01747C10.3593 8.33169 10.3078 8.67305 10.2694 9.00408C10.2271 9.34157 10.2258 9.67001 10.276 10.0075C10.3712 10.6605 10.5471 11.2837 10.8181 11.898C11.1104 12.5652 11.462 13.2014 11.9248 13.7845C12.3426 14.3121 12.8159 14.7996 13.3634 15.2199C13.9399 15.6595 14.5692 16.0436 15.2356 16.3629C15.8649 16.6642 16.5327 16.9073 17.1951 17.1414C17.9012 17.3909 18.631 17.5927 19.3595 17.7827C20.8364 18.1707 22.3464 18.4409 23.8721 18.6206C24.4328 18.6866 24.9961 18.7306 25.5606 18.7487C25.5249 18.803 25.4906 18.856 25.4562 18.909C25.0199 19.5775 24.5742 20.2357 24.056 20.8564C23.0286 22.015 21.8519 23.0779 20.5522 23.9947C19.936 24.4084 19.2948 24.7873 18.631 25.13C18.5636 24.786 18.4736 24.4459 18.3771 24.1059C18.2185 23.5408 18.0162 22.9835 17.7689 22.4443C17.4886 21.8314 17.1687 21.2495 16.7217 20.7193C16.5115 20.4697 16.2894 20.2396 16.0356 20.0262C15.7803 19.809 15.4855 19.6202 15.1906 19.4482C14.8799 19.2672 14.5295 19.1431 14.1884 19.0176C13.8314 18.8883 13.4519 18.8146 13.0738 18.7642C12.6877 18.7125 12.3069 18.684 11.9182 18.684C11.5466 18.684 11.1805 18.7241 10.8128 18.7681C10.0341 18.8624 9.30819 19.068 8.58759 19.3448C7.96086 19.5866 7.36587 19.8749 6.79468 20.2072C6.14151 20.59 5.51214 21.0413 5.00177 21.5702C4.49669 22.0938 4.12782 22.6809 3.92949 23.352C3.83561 23.674 3.80653 24.0192 3.80521 24.3503C3.80389 24.5429 3.83958 24.7356 3.86867 24.9257C3.89776 25.1145 3.94008 25.2968 4.00354 25.4791C4.21641 26.0985 4.6329 26.6209 5.11682 27.0929C5.32573 27.2998 5.57431 27.4782 5.81759 27.6515C6.16929 27.8997 6.53156 28.1221 6.92293 28.32C8.22926 28.9756 9.73392 29.2057 11.2161 29.229C11.9763 29.2432 12.734 29.1566 13.4837 29.0506C14.2386 28.9407 14.9791 28.7557 15.7063 28.545C16.136 28.4221 16.5618 28.2838 16.9822 28.1338C16.9876 28.2023 16.9915 28.2696 16.9941 28.3381C17.0087 28.7118 17.0232 29.0868 17.0377 29.4618C17.0629 30.0954 16.998 30.7432 16.9108 31.3742C16.7059 32.6453 16.3224 33.8789 15.7816 35.0672C15.2647 36.125 14.634 37.131 13.9491 38.1086C13.649 38.5379 13.3317 38.9558 13.0276 39.3835C12.8569 39.624 12.6652 39.8594 12.5159 40.1114C12.4285 40.2579 12.3413 40.4023 12.2541 40.5473C12.1535 40.714 12.0689 40.8848 11.9856 41.0595C11.9856 41.0595 11.9869 41.0595 11.9869 41.0579C11.9856 41.0595 11.9856 41.0585 11.9856 41.0595C11.9777 41.0777 11.9685 41.0984 11.9579 41.1175C11.9658 41.1019 11.9737 41.0862 11.9817 41.0711C11.9261 41.1863 11.8706 41.3009 11.8058 41.4135C11.6379 41.706 11.6657 42.0526 11.9314 42.2914C12.2474 42.5733 12.7591 42.5658 13.0751 42.2914C13.2589 42.1313 13.4625 41.9904 13.6582 41.8444C13.7507 41.7717 13.8354 41.6838 13.92 41.6035C14.084 41.45 14.2492 41.305 14.3947 41.1382C14.6102 40.8898 14.8323 40.6453 15.0426 40.3933C15.2184 40.1826 15.3758 39.9614 15.5423 39.7457C15.8306 39.3719 16.0897 38.9815 16.3582 38.596C16.4666 38.4422 16.5564 38.2766 16.653 38.1163C16.7772 37.9185 16.9148 37.7193 17.0245 37.5137C17.3075 36.9732 17.5958 36.4314 17.8496 35.8767C18.3812 34.7026 18.7315 33.4703 18.9272 32.2134C19.0846 31.2087 19.1586 30.1975 19.1109 29.1825C19.0885 28.7221 19.074 28.2618 19.025 27.8041C19.0078 27.6398 18.9907 27.4756 18.9721 27.3127C19.2286 27.1924 19.4798 27.067 19.7297 26.939C20.9686 26.2976 22.1202 25.5089 23.1754 24.6438C24.2385 23.7723 25.2037 22.8089 26.071 21.7783C26.5827 21.168 27.0072 20.5098 27.4369 19.8517C27.692 19.4586 27.9406 19.0629 28.172 18.6594C28.2037 18.6569 28.2355 18.653 28.2672 18.6491C29.0036 18.5689 29.7295 18.4487 30.4462 18.2832C31.1919 18.1086 31.9217 17.8771 32.6384 17.625C34.0227 17.1349 35.3462 16.5246 36.6076 15.8224C39.0483 14.4647 41.2512 12.7591 43.2001 10.8764C44.1653 9.94414 45.0498 8.9459 45.8723 7.91144C46.6972 6.87311 47.406 5.76752 47.9613 4.59471C48.5272 3.40767 48.9476 2.17149 49.2002 0.900402C49.4553 -0.375858 49.5162 -1.67411 49.4369 -2.96718C49.3575 -4.28612 49.1024 -5.60763 48.756 -6.88907C48.4095 -8.16921 47.9335 -9.41444 47.3597 -10.6274C46.2187 -13.0415 44.5474 -15.2061 42.5297 -17.0979C41.4323 -18.1311 40.2133 -19.0582 38.9373 -19.909C37.6508 -20.7715 36.2691 -21.5228 34.8042 -22.1176C33.3074 -22.7228 31.7181 -23.2141 30.0957 -23.465C29.469 -23.562 28.8344 -23.6111 28.1998 -23.6111C28.0147 -23.6111 27.8295 -23.6072 27.6444 -23.5995Z" fill="white"/>
                </mask>
                <g mask="url(#mask1_915_2184)">
                    <path d="M11.8055 40.9714C11.8274 40.926 11.8492 40.8795 11.8722 40.8311L12.2368 41.0013C12.2148 41.0477 12.1916 41.0972 12.1686 41.1447L11.8055 40.9714ZM24.1539 21.0537C24.1318 21.0788 24.1095 21.1055 24.0855 21.1343L23.7755 20.8787C23.799 20.8506 23.8243 20.8203 23.8499 20.7911L24.1539 21.0537ZM24.5937 16.5263C24.6293 16.5302 24.6647 16.534 24.7012 16.5378L24.659 16.9356C24.6216 16.9317 24.5855 16.9278 24.5497 16.9239L24.5937 16.5263ZM33.2714 15.853C33.2363 15.867 33.1976 15.8824 33.1584 15.8966L33.0203 15.5209C33.0525 15.5092 33.0851 15.4962 33.1214 15.4818L33.2714 15.853ZM33.3831 15.8115C33.3601 15.8212 33.3334 15.8307 33.322 15.835L33.1793 15.4609C33.2022 15.4523 33.2125 15.4489 33.2265 15.443L33.3831 15.8115ZM39.1562 12.7144C39.1496 12.719 39.143 12.7235 39.1363 12.728C39.1297 12.7326 39.1231 12.7371 39.1166 12.7416L38.8878 12.4123C38.8945 12.4077 38.9011 12.4032 38.9077 12.3987C38.9143 12.3941 38.9209 12.3896 38.9275 12.3851L39.1562 12.7144ZM11.987 41.058L11.6794 40.7997L12.3899 39.9658V41.058H11.987ZM12.8028 20.7155L12.8355 20.3168L12.8503 20.318L12.865 20.3203L12.8028 20.7155ZM13.7509 20.9431L13.8785 20.5637L13.8954 20.5693L13.9118 20.5764L13.7509 20.9431ZM14.4331 21.2961L14.6481 20.9578L14.6617 20.9663L14.6746 20.9759L14.4331 21.2961ZM15.0664 21.8651L15.3637 21.5951L15.3739 21.6062L15.3834 21.6181L15.0664 21.8651ZM15.8134 23.0599L16.1741 22.8815L16.178 22.8892L16.1815 22.897L15.8134 23.0599ZM16.3331 24.4564L16.718 24.338L16.7183 24.3391L16.3331 24.4564ZM16.6438 25.6835L17.0405 25.6133L17.0406 25.6144L16.6438 25.6835ZM16.698 25.999L17.0957 25.9347L17.1492 26.2608L16.8367 26.3746L16.698 25.999ZM12.8597 26.9818L12.9144 27.3781L12.907 27.3791L12.8995 27.3798L12.8597 26.9818ZM10.2299 26.9792L10.1887 27.3771L10.1795 27.3761L10.1703 27.3748L10.2299 26.9792ZM8.57444 26.5861L8.44319 26.9643L8.43256 26.9606L8.42215 26.9564L8.57444 26.5861ZM7.33159 25.9421L7.11093 26.2768L7.10043 26.27L7.09039 26.2625L7.33159 25.9421ZM6.59114 25.293L6.298 25.5674L6.28295 25.5516L6.26972 25.5342L6.59114 25.293ZM6.34523 24.9141L5.99261 25.1077L5.97841 25.0822L5.96809 25.0549L6.34523 24.9141ZM6.21963 24.4926L5.82608 24.5783L5.8202 24.5518L5.818 24.5246L6.21963 24.4926ZM6.21963 23.9573L5.81827 23.9221L5.8208 23.8936L5.82739 23.8658L6.21963 23.9573ZM6.36373 23.5021L5.98927 23.3544L5.99961 23.3286L6.01345 23.3044L6.36373 23.5021ZM6.67711 23.0379L6.3589 22.7925L6.37015 22.7781L6.38265 22.7648L6.67711 23.0379ZM7.64228 22.2064L7.40364 21.8841L7.41183 21.8782L7.42031 21.8726L7.64228 22.2064ZM9.70625 21.1345L9.5553 20.7636L9.5636 20.7603L9.57205 20.7573L9.70625 21.1345ZM11.3166 20.7323L11.2557 20.337L11.2661 20.3354L11.2767 20.3343L11.3166 20.7323ZM44.4324 7.68654L44.1369 7.41463L44.74 7.94489L44.4324 7.68654ZM19.9519 5.2491L19.9911 4.85099L20.0004 4.85189L20.0095 4.85321L19.9519 5.2491ZM22.1508 5.79736L22.2882 5.42131L22.2964 5.4243L22.3046 5.42766L22.1508 5.79736ZM24.1618 6.86285L24.3849 6.52979L24.3919 6.53436L24.3986 6.53922L24.1618 6.86285ZM25.7273 8.24773L26.0257 7.97892L26.0324 7.98629L26.0387 7.99398L25.7273 8.24773ZM26.8829 10.0257L27.244 9.84824L27.2481 9.8564L27.2517 9.86475L26.8829 10.0257ZM27.4779 11.964L27.8743 11.8926L27.8762 11.9031L27.8777 11.9137L27.4779 11.964ZM27.4739 14.1752L27.8737 14.2253L27.8726 14.2338L27.8712 14.2422L27.4739 14.1752ZM26.6555 16.8764L27.0241 17.0379L26.9167 17.2796L26.6506 17.2764L26.6555 16.8764ZM24.7264 16.7432L24.6817 17.1408L24.6743 17.1398L24.7264 16.7432ZM17.9885 15.0816L17.8483 15.4567L17.8407 15.4538L17.9885 15.0816ZM15.4182 13.7976L15.1958 14.1312L15.1873 14.1256L15.1791 14.1197L15.4182 13.7976ZM14.2335 12.7411L13.9355 13.0105L13.9271 13.0012L13.9192 12.9915L14.2335 12.7411ZM13.2881 11.267L12.9277 11.4459L12.9232 11.4369L12.9191 11.4277L13.2881 11.267ZM12.8082 9.77227L12.4123 9.84681L12.4085 9.82718L12.4067 9.80725L12.8082 9.77227ZM12.8147 9.06108L12.4138 9.02134L12.4161 8.99804L12.4213 8.97515L12.8147 9.06108ZM13.0303 8.3848L12.6582 8.23132L12.6648 8.21539L12.6729 8.20007L13.0303 8.3848ZM13.6874 7.39301L13.3743 7.14132L13.382 7.13177L13.3904 7.1227L13.6874 7.39301ZM14.8337 6.37148L14.5946 6.04952L14.604 6.04268L14.6137 6.03637L14.8337 6.37148ZM16.2114 5.65254L16.057 5.28308L16.0686 5.27831L16.0805 5.27427L16.2114 5.65254ZM17.8681 5.2491L17.8078 4.85361L17.8181 4.85207L17.8284 4.85106L17.8681 5.2491ZM43.38 -14.35L43.0705 -14.0939L43.6839 -14.6126L43.38 -14.35ZM43.4739 -14.2401L43.7876 -14.491L43.1653 -13.9828L43.4739 -14.2401ZM27.6445 -23.5994L27.6245 -23.9989L27.6275 -23.999L27.6445 -23.5994ZM26.3898 -23.461L26.4521 -23.0658L26.4492 -23.0654L26.3898 -23.461ZM25.8781 -23.3563L25.7824 -23.7448L25.7846 -23.7454L25.8781 -23.3563ZM25.3519 -23.1623L25.2041 -23.5345L25.2056 -23.5351L25.3519 -23.1623ZM25.0873 -22.2559L24.8045 -21.9711L24.7848 -21.9902L24.7681 -22.0119L25.0873 -22.2559ZM25.0887 -22.2533L24.7691 -22.0097L24.6858 -22.1174V-22.2533H25.0887ZM25.923 -21.952L26.0322 -21.5669L26.0229 -21.5645L25.923 -21.952ZM26.0605 -21.9999L25.8999 -22.3667L25.916 -22.3737L25.9328 -22.3792L26.0605 -21.9999ZM27.1897 -22.2417L27.1373 -22.6384L27.1496 -22.6397L27.1897 -22.2417ZM29.493 -22.2352L29.5337 -22.6333L29.545 -22.6318L29.493 -22.2352ZM33.679 -21.1477L33.8195 -21.5227L33.8246 -21.5207L33.679 -21.1477ZM38.6491 -18.5008L38.8769 -18.8308L38.8806 -18.8282L38.6491 -18.5008ZM43.4791 -14.2336L43.7836 -14.4957L43.7876 -14.491L43.4791 -14.2336ZM46.4422 -9.66133L46.8066 -9.83203L46.809 -9.82671L46.4422 -9.66133ZM48.1465 -4.00026L48.5448 -4.06054L48.5457 -4.05436L48.1465 -4.00026ZM48.1742 0.0483513L48.5737 0.101719L48.5718 0.113155L48.1742 0.0483513ZM46.9975 3.85128L47.3643 4.01699L47.361 4.02386L46.9975 3.85128ZM44.3504 7.77835L44.6563 8.03876L44.6541 8.04128L44.3504 7.77835ZM38.907 12.6416L39.139 12.9687L39.1352 12.9712L38.907 12.6416ZM33.2189 15.6596L33.3647 16.0325L33.3583 16.0349L33.2189 15.6596ZM29.0764 16.7406L29.1352 17.1364L28.4679 17.2339L28.6976 16.6044L29.0764 16.7406ZM26.9676 6.38311L27.2579 6.10579L27.2587 6.10662L26.9676 6.38311ZM16.8725 3.21379L16.9395 3.60824L16.9385 3.60839L16.8725 3.21379ZM10.2695 9.00417L10.6698 9.04987L10.6694 9.05357L10.2695 9.00417ZM10.2761 10.0076L10.6747 9.94912L10.6749 9.9503L10.2761 10.0076ZM10.8182 11.8981L11.1873 11.7375L11.1877 11.7386L10.8182 11.8981ZM13.3635 15.22L13.118 15.5372L13.117 15.5364L13.3635 15.22ZM25.5607 18.7488L25.5738 18.349L26.2895 18.3719L25.8981 18.9674L25.5607 18.7488ZM25.4563 18.9091L25.7951 19.1256L25.7945 19.1266L25.4563 18.9091ZM24.0561 20.8565L24.3664 21.1119L24.3585 21.1208L24.0561 20.8565ZM20.5523 23.9948L20.7857 24.3209L20.778 24.3261L20.5523 23.9948ZM18.6311 25.1301L18.817 25.485L18.3386 25.7319L18.2356 25.2065L18.6311 25.1301ZM18.3772 24.106L17.9894 24.2144L17.9891 24.2134L18.3772 24.106ZM16.0356 20.0263L15.7753 20.3316L15.7733 20.33L16.0356 20.0263ZM14.1885 19.0177L14.3266 18.642L14.3285 18.6426L14.1885 19.0177ZM6.79477 20.2073L6.58996 19.8629L6.59104 19.8622L6.79477 20.2073ZM3.92958 23.3521L3.54254 23.2409L3.54296 23.2395L3.92958 23.3521ZM3.8053 24.3504L4.20822 24.3519L4.20821 24.3531L3.8053 24.3504ZM4.00362 25.4792L4.38445 25.3486L4.38496 25.35L4.00362 25.4792ZM5.1169 27.093L5.39929 26.8076L5.40146 26.8098L5.1169 27.093ZM5.81768 27.6516L5.58419 27.9776L5.58281 27.9766L5.81768 27.6516ZM6.92302 28.3201L6.74124 28.6771L6.74018 28.6765L6.92302 28.3201ZM11.2162 29.2291L11.2226 28.8292H11.2238L11.2162 29.2291ZM13.4838 29.0507L13.5423 29.4464L13.5406 29.4467L13.4838 29.0507ZM15.7064 28.5451L15.5934 28.1611L15.5949 28.1607L15.7064 28.5451ZM16.9823 28.1339L16.846 27.7575L17.3436 27.5799L17.384 28.1033L16.9823 28.1339ZM16.9109 31.3743L17.3102 31.4287L17.3088 31.4375L16.9109 31.3743ZM15.7817 35.0673L16.1491 35.2321L16.1442 35.242L15.7817 35.0673ZM11.9857 41.0596L11.9843 41.4596L11.3503 41.4573L11.6216 40.8884L11.9857 41.0596ZM11.9857 41.0596L12.3886 41.0606V41.1433L12.3556 41.2192L11.9857 41.0596ZM11.958 41.1176L12.3112 41.3101L11.5981 40.9378L11.958 41.1176ZM11.9818 41.0712L11.6244 40.8865L12.3452 41.2439L11.9818 41.0712ZM11.9315 42.2915L11.6623 42.589L11.6611 42.588L11.9315 42.2915ZM13.6583 41.8445L13.9083 42.1583L13.9004 42.1642L13.6583 41.8445ZM13.9201 41.6036L13.6417 41.3144L13.6437 41.3126L13.9201 41.6036ZM16.3583 38.5961L16.0268 38.3687L16.0281 38.3669L16.3583 38.5961ZM16.6531 38.1164L16.3071 37.9112L16.3112 37.9047L16.6531 38.1164ZM17.0246 37.5138L17.3822 37.6983L17.3807 37.7011L17.0246 37.5138ZM17.8497 35.8768L18.2172 36.0408L18.2165 36.0423L17.8497 35.8768ZM18.9722 27.3128L18.5718 27.3576L18.5395 27.0733L18.8002 26.9511L18.9722 27.3128ZM19.7298 26.9391L19.9162 27.2938L19.9145 27.2946L19.7298 26.9391ZM27.437 19.8518L27.7756 20.0684L27.775 20.0693L27.437 19.8518ZM28.1721 18.6595L27.822 18.4616L27.9271 18.2782L28.139 18.2609L28.1721 18.6595ZM28.2673 18.6492L28.218 18.2522L28.2234 18.2516L28.2673 18.6492ZM30.4463 18.2833L30.5387 18.6726L30.5375 18.6728L30.4463 18.2833ZM47.9614 4.5948L47.5967 4.42463L47.5973 4.42369L47.9614 4.5948ZM38.9374 -19.9089L38.7128 -19.5769L38.7119 -19.5775L38.9374 -19.9089ZM12.865 20.3203C13.2115 20.374 13.5482 20.4542 13.8785 20.5637L13.6233 21.3225C13.3374 21.2277 13.0447 21.1579 12.7407 21.1107L12.865 20.3203ZM13.9118 20.5764C14.1651 20.6859 14.4101 20.8088 14.6481 20.9578L14.2182 21.6344C14.0225 21.5119 13.8154 21.4072 13.59 21.3099L13.9118 20.5764ZM14.6746 20.9759C14.9257 21.1626 15.1533 21.3668 15.3637 21.5951L14.7692 22.1351C14.5934 21.9444 14.4032 21.7736 14.1916 21.6163L14.6746 20.9759ZM15.3834 21.6181C15.7018 22.0209 15.9551 22.4449 16.1741 22.8815L15.4528 23.2382C15.2515 22.8369 15.026 22.4618 14.7495 22.112L15.3834 21.6181ZM16.1815 22.897C16.3947 23.3721 16.5667 23.8533 16.718 24.338L15.9482 24.5747C15.8034 24.1103 15.6421 23.6606 15.4455 23.2227L16.1815 22.897ZM16.7183 24.3391C16.845 24.7489 16.9625 25.1785 17.0405 25.6133L16.2472 25.7537C16.1771 25.3635 16.0698 24.9682 15.9479 24.5737L16.7183 24.3391ZM17.0406 25.6144C17.0593 25.7194 17.0781 25.8274 17.0957 25.9347L16.3004 26.0633C16.2836 25.9611 16.2654 25.8571 16.247 25.7526L17.0406 25.6144ZM16.8367 26.3746C15.5804 26.8319 14.2706 27.1935 12.9144 27.3781L12.805 26.5855C14.0905 26.4105 15.3431 26.0662 16.5593 25.6235L16.8367 26.3746ZM12.8995 27.3798C11.9939 27.469 11.0914 27.4691 10.1887 27.3771L10.271 26.5813C11.1189 26.6677 11.9671 26.6677 12.8199 26.5837L12.8995 27.3798ZM10.1703 27.3748C9.58292 27.2877 9.00704 27.1571 8.44319 26.9643L8.70569 26.2079C9.21546 26.3823 9.7423 26.5025 10.2893 26.5836L10.1703 27.3748ZM8.42215 26.9564C7.95968 26.769 7.52405 26.5452 7.11093 26.2768L7.55224 25.6074C7.91922 25.8459 8.30862 26.0463 8.72673 26.2157L8.42215 26.9564ZM7.09039 26.2625C6.80643 26.0519 6.54115 25.8234 6.298 25.5674L6.88428 25.0186C7.09068 25.2359 7.31993 25.4341 7.57279 25.6217L7.09039 26.2625ZM6.26972 25.5342C6.16379 25.3951 6.07296 25.252 5.99261 25.1077L6.69786 24.7206C6.76295 24.8375 6.83339 24.9478 6.91256 25.0518L6.26972 25.5342ZM5.96809 25.0549C5.90829 24.897 5.86187 24.7402 5.82608 24.5783L6.61318 24.4068C6.64085 24.532 6.6764 24.652 6.72237 24.7734L5.96809 25.0549ZM5.818 24.5246C5.8019 24.3257 5.80015 24.1259 5.81827 23.9221L6.62099 23.9924C6.60737 24.1455 6.60826 24.3 6.62125 24.4606L5.818 24.5246ZM5.82739 23.8658C5.86897 23.6901 5.92251 23.5213 5.98927 23.3544L6.73819 23.6498C6.68595 23.7803 6.64434 23.9115 6.61187 24.0487L5.82739 23.8658ZM6.01345 23.3044C6.11617 23.125 6.23154 22.9553 6.3589 22.7925L6.9953 23.2833C6.88996 23.4179 6.79639 23.5559 6.714 23.6998L6.01345 23.3044ZM6.38265 22.7648C6.69509 22.4328 7.04281 22.1475 7.40364 21.8841L7.88093 22.5287C7.54365 22.7749 7.23825 23.0275 6.97155 23.3109L6.38265 22.7648ZM7.42031 21.8726C8.08889 21.4345 8.80301 21.0654 9.5553 20.7636L9.85719 21.5054C9.15241 21.7881 8.48614 22.1327 7.86425 22.5403L7.42031 21.8726ZM9.57205 20.7573C10.1189 20.5656 10.6775 20.4249 11.2557 20.337L11.3777 21.1277C10.8506 21.2079 10.3409 21.3362 9.84045 21.5116L9.57205 20.7573ZM11.2767 20.3343C11.7948 20.283 12.3124 20.2747 12.8355 20.3168L12.7702 21.1142C12.299 21.0762 11.8302 21.0834 11.3567 21.1304L11.2767 20.3343ZM44.74 7.94489C44.7101 7.98005 44.6798 8.01411 44.6492 8.04704L44.057 7.50448C44.0793 7.48051 44.1019 7.45511 44.1248 7.4282L44.74 7.94489ZM44.057 7.50448C44.0648 7.49617 44.073 7.48669 44.0871 7.47046C44.0997 7.456 44.1174 7.43555 44.1369 7.41463L44.728 7.95845C44.7197 7.96727 44.711 7.97721 44.6974 7.99281C44.6855 8.00663 44.6679 8.02689 44.6492 8.04704L44.057 7.50448ZM20.0095 4.85321C20.7948 4.96581 21.5514 5.15617 22.2882 5.42131L22.0135 6.17341C21.3275 5.9265 20.6243 5.74965 19.8944 5.64499L20.0095 4.85321ZM22.3046 5.42766C23.0424 5.73021 23.7333 6.09956 24.3849 6.52979L23.9387 7.19593C23.329 6.79342 22.6844 6.44898 21.9969 6.16706L22.3046 5.42766ZM24.3986 6.53922C24.993 6.96777 25.5375 7.44488 26.0257 7.97892L25.4289 8.51653C24.981 8.02646 24.4784 7.58551 23.925 7.18649L24.3986 6.53922ZM26.0387 7.99398C26.516 8.57135 26.916 9.19054 27.244 9.84824L26.5218 10.2032C26.2204 9.59883 25.8535 9.03098 25.4158 8.50148L26.0387 7.99398ZM27.2517 9.86475C27.5425 10.5214 27.7472 11.1968 27.8743 11.8926L27.0815 12.0354C26.9652 11.3993 26.7786 10.7842 26.5141 10.1866L27.2517 9.86475ZM27.8777 11.9137C27.976 12.6843 27.9716 13.4564 27.8737 14.2253L27.0742 14.125C27.1641 13.4198 27.1676 12.7152 27.0782 12.0143L27.8777 11.9137ZM27.8712 14.2422C27.7069 15.2018 27.425 16.1361 27.0241 17.0379L26.2868 16.7149C26.6608 15.8736 26.9236 15.0028 27.0767 14.1082L27.8712 14.2422ZM26.6506 17.2764C25.9865 17.2684 25.3293 17.2126 24.6817 17.1408L24.7711 16.3457C25.4061 16.4161 26.034 16.4689 26.6603 16.4764L26.6506 17.2764ZM24.6743 17.1398C23.5266 16.9913 22.4036 16.7644 21.2925 16.4957L21.4824 15.7182C22.5741 15.9822 23.6679 16.2028 24.7785 16.3466L24.6743 17.1398ZM21.2925 16.4957C20.1237 16.2155 18.9694 15.8698 17.8483 15.4567L18.1287 14.7066C19.2183 15.1081 20.3428 15.445 21.4824 15.7182L21.2925 16.4957ZM17.8407 15.4538C16.92 15.0936 16.0248 14.6757 15.1958 14.1312L15.6405 13.464C16.4061 13.9669 17.2455 14.361 18.1362 14.7095L17.8407 15.4538ZM15.1791 14.1197C14.7237 13.7866 14.3111 13.4199 13.9355 13.0105L14.5313 12.4718C14.8698 12.8408 15.2426 13.1724 15.6571 13.4755L15.1791 14.1197ZM13.9192 12.9915C13.5255 12.5044 13.2024 11.9913 12.9277 11.4459L13.6484 11.0881C13.9001 11.5876 14.1931 12.052 14.5477 12.4908L13.9192 12.9915ZM12.9191 11.4277C12.6954 10.9213 12.5168 10.3944 12.4123 9.84681L13.204 9.69772C13.295 10.1742 13.4524 10.643 13.6571 11.1064L12.9191 11.4277ZM12.4067 9.80725C12.3832 9.5405 12.3878 9.27999 12.4138 9.02134L13.2157 9.10082C13.1941 9.31542 13.1907 9.5256 13.2095 9.73729L12.4067 9.80725ZM12.4213 8.97515C12.4781 8.7184 12.5568 8.4734 12.6582 8.23132L13.4024 8.5383C13.3186 8.73843 13.2545 8.93825 13.2083 9.147L12.4213 8.97515ZM12.6729 8.20007C12.8695 7.82505 13.1027 7.47428 13.3743 7.14132L14.0006 7.6447C13.7617 7.9376 13.5585 8.24371 13.3877 8.56953L12.6729 8.20007ZM13.3904 7.1227C13.7532 6.72987 14.1534 6.37251 14.5946 6.04952L15.0729 6.69343C14.6732 6.98595 14.3119 7.30875 13.9844 7.66331L13.3904 7.1227ZM14.6137 6.03637C15.069 5.74182 15.5485 5.49256 16.057 5.28308L16.3658 6.022C15.9013 6.21338 15.4658 6.43995 15.0537 6.70659L14.6137 6.03637ZM16.0805 5.27427C16.6416 5.0828 17.2166 4.94256 17.8078 4.85361L17.9286 5.64458C17.3853 5.72632 16.8575 5.85505 16.3425 6.03082L16.0805 5.27427ZM17.8284 4.85106C18.5521 4.77987 19.2714 4.78127 19.9911 4.85099L19.9128 5.64721C19.2442 5.58245 18.5779 5.58126 17.9079 5.64715L17.8284 4.85106ZM43.6839 -14.6126C43.7148 -14.5773 43.7517 -14.5354 43.7876 -14.491L43.16 -13.9893C43.1352 -14.0198 43.1085 -14.0503 43.076 -14.0875L43.6839 -14.6126ZM43.1653 -13.9828C43.1452 -14.0066 43.0959 -14.0636 43.0705 -14.0939L43.6894 -14.6062C43.7248 -14.5641 43.739 -14.5486 43.7823 -14.4974L43.1653 -13.9828ZM27.6644 -23.1999C27.264 -23.1802 26.8604 -23.1294 26.4521 -23.0658L26.3273 -23.8562C26.7494 -23.9219 27.1841 -23.9772 27.6245 -23.9989L27.6644 -23.1999ZM26.4492 -23.0654C26.2938 -23.0424 26.1413 -23.0074 25.9715 -22.9672L25.7846 -23.7454C25.9533 -23.7853 26.1365 -23.8279 26.3302 -23.8566L26.4492 -23.0654ZM25.9738 -22.9677C25.8267 -22.932 25.7107 -22.8718 25.498 -22.7896L25.2056 -23.5351C25.3341 -23.5847 25.5671 -23.6926 25.7824 -23.7448L25.9738 -22.9677ZM25.4995 -22.7902C25.4671 -22.7775 25.4201 -22.7359 25.3973 -22.6536C25.3735 -22.568 25.3961 -22.5136 25.4066 -22.4999L24.7681 -22.0119C24.5672 -22.271 24.5467 -22.6012 24.6205 -22.8664C24.6951 -23.1349 24.8862 -23.4101 25.2041 -23.5345L25.4995 -22.7902ZM25.0873 -22.2559C25.3703 -22.5407 25.3704 -22.5406 25.3704 -22.5406C25.3705 -22.5405 25.3712 -22.5398 25.3714 -22.5396C25.3718 -22.5392 25.3722 -22.5388 25.3726 -22.5384C25.3733 -22.5377 25.3741 -22.5369 25.3749 -22.536C25.3765 -22.5344 25.3782 -22.5327 25.3801 -22.5308C25.3836 -22.5271 25.3875 -22.5229 25.3916 -22.5181C25.3996 -22.509 25.4104 -22.4959 25.4218 -22.4792C25.4354 -22.4592 25.4917 -22.376 25.4917 -22.2533H24.6858C24.6858 -22.1874 24.7022 -22.1355 24.7152 -22.1037C24.7285 -22.0711 24.7437 -22.0465 24.7543 -22.0309C24.7654 -22.0147 24.7758 -22.002 24.7835 -21.9932C24.7876 -21.9886 24.7914 -21.9844 24.7948 -21.9808C24.7965 -21.979 24.7982 -21.9773 24.7999 -21.9757C24.8007 -21.9749 24.8015 -21.9741 24.8022 -21.9733C24.8026 -21.9729 24.803 -21.9725 24.8034 -21.9722C24.8036 -21.972 24.8043 -21.9713 24.8045 -21.9711C24.8045 -21.971 24.8045 -21.9711 25.0873 -22.2559ZM25.4083 -22.4969C25.4993 -22.3792 25.5993 -22.3261 25.726 -22.3261V-21.5261C25.3026 -21.5261 24.9822 -21.7343 24.7691 -22.0097L25.4083 -22.4969ZM25.726 -22.3261C25.7521 -22.3261 25.7858 -22.33 25.823 -22.3395L26.0229 -21.5645C25.9279 -21.5404 25.8268 -21.5261 25.726 -21.5261V-22.3261ZM25.8138 -22.3371C25.8469 -22.3463 25.8753 -22.3561 25.8999 -22.3667L26.2211 -21.633C26.1558 -21.6048 26.0916 -21.5835 26.0322 -21.5669L25.8138 -22.3371ZM25.9328 -22.3792C26.3331 -22.5121 26.7366 -22.5862 27.1373 -22.6384L27.242 -21.8451C26.8679 -21.7963 26.5205 -21.7308 26.1882 -21.6205L25.9328 -22.3792ZM27.1496 -22.6397C27.9476 -22.7188 28.7389 -22.7135 29.5337 -22.6333L29.4522 -21.8372C28.7079 -21.9123 27.9708 -21.9171 27.2297 -21.8436L27.1496 -22.6397ZM29.545 -22.6318C31.0222 -22.4405 32.464 -22.0231 33.8195 -21.5227L33.5386 -20.7728C32.2181 -21.2603 30.8381 -21.6575 29.4408 -21.8385L29.545 -22.6318ZM33.8246 -21.5207C35.64 -20.8221 37.3148 -19.8933 38.8769 -18.8308L38.4214 -18.1708C36.9 -19.2057 35.28 -20.1026 33.5334 -20.7747L33.8246 -21.5207ZM38.8806 -18.8282C40.6946 -17.5648 42.3585 -16.1275 43.7836 -14.4957L43.1747 -13.9716C41.7993 -15.5466 40.1869 -16.9412 38.4177 -18.1733L38.8806 -18.8282ZM43.7876 -14.491C45.0077 -13.0541 46.0154 -11.497 46.8066 -9.83203L46.0778 -9.49066C45.3167 -11.092 44.3468 -12.5912 43.1711 -13.9758L43.7876 -14.491ZM46.809 -9.82671C47.6543 -7.97882 48.2402 -6.04401 48.5448 -4.06054L47.7481 -3.93998C47.4551 -5.84866 46.8908 -7.7129 46.0753 -9.49596L46.809 -9.82671ZM48.5457 -4.05436C48.7351 -2.67743 48.7617 -1.28455 48.5737 0.101719L47.7749 -0.00499344C47.9519 -1.31091 47.9282 -2.63089 47.7472 -3.94615L48.5457 -4.05436ZM48.5718 0.113155C48.3489 1.46138 47.9399 2.76115 47.3643 4.01699L46.6307 3.6856C47.1789 2.48977 47.5659 1.25766 47.7767 -0.0164528L48.5718 0.113155ZM47.361 4.02386C47.0292 4.71243 46.6511 5.37926 46.2185 6.0253L45.5474 5.58234C45.9583 4.96893 46.3179 4.33493 46.6341 3.67871L47.361 4.02386ZM46.2185 6.0253C45.7447 6.73158 45.2096 7.39832 44.6563 8.03876L44.0446 7.51793C44.5861 6.89116 45.0983 6.25187 45.5474 5.58234L46.2185 6.0253ZM44.6541 8.04128C43.0421 9.87584 41.1948 11.5319 39.139 12.9687L38.6751 12.3145C40.6783 10.9144 42.4776 9.30145 44.0468 7.51542L44.6541 8.04128ZM39.1352 12.9712C37.3531 14.1877 35.4336 15.235 33.3647 16.0325L33.0731 15.2867C35.0765 14.5144 36.9411 13.498 38.6787 12.312L39.1352 12.9712ZM33.3583 16.0349C32.0027 16.531 30.5924 16.9233 29.1352 17.1364L29.0177 16.3449C30.4085 16.1416 31.7642 15.7657 33.0795 15.2843L33.3583 16.0349ZM28.6976 16.6044C29.0412 15.6626 29.2558 14.6856 29.3428 13.6956L30.1456 13.7649C30.0526 14.8231 29.8231 15.8687 29.4553 16.8768L28.6976 16.6044ZM29.3428 13.6956C29.4523 12.441 29.2586 11.1495 28.8075 9.9525L29.5623 9.6722C30.0526 10.9734 30.2661 12.3842 30.1456 13.7649L29.3428 13.6956ZM28.8075 9.9525C28.3518 8.74277 27.6158 7.63453 26.6763 6.65961L27.2587 6.10662C28.2629 7.1489 29.0633 8.34748 29.5623 9.6722L28.8075 9.9525ZM26.6772 6.66044C26.2231 6.19182 25.6929 5.77963 25.1236 5.38771L25.5827 4.7303C26.1743 5.1375 26.7521 5.58392 27.2579 6.10579L26.6772 6.66044ZM25.1236 5.38771C24.5714 5.00731 23.9858 4.67789 23.3614 4.3982L23.6927 3.66893C24.3615 3.96854 24.9899 4.32194 25.5827 4.7303L25.1236 5.38771ZM23.3614 4.3982C22.029 3.80202 20.5677 3.48537 19.0707 3.43903L19.0953 2.6394C20.6897 2.68876 22.2565 3.02636 23.6927 3.66893L23.3614 4.3982ZM19.0707 3.43903C18.3648 3.41807 17.65 3.48946 16.9395 3.60824L16.8056 2.81934C17.5494 2.69502 18.3203 2.6164 19.0953 2.6394L19.0707 3.43903ZM16.9385 3.60839C16.2273 3.72552 15.5415 3.95761 14.8655 4.23948L14.5532 3.50198C15.2603 3.20713 16.0105 2.95033 16.8066 2.81919L16.9385 3.60839ZM14.8655 4.23948C14.2726 4.48713 13.7398 4.83099 13.1974 5.21322L12.7308 4.56092C13.2858 4.1699 13.8768 3.78449 14.5532 3.50198L14.8655 4.23948ZM13.1974 5.21322C12.6468 5.6014 12.1904 6.08406 11.7446 6.61269L11.1262 6.09983C11.5875 5.55264 12.0967 5.00806 12.7308 4.56092L13.1974 5.21322ZM11.7446 6.61269C11.3621 7.06833 11.0816 7.60273 10.8585 8.16431L10.1087 7.87136C10.351 7.26142 10.6706 6.64245 11.1262 6.09983L11.7446 6.61269ZM10.8585 8.16431C10.7548 8.42659 10.7076 8.72281 10.6698 9.04987L9.86923 8.95848C9.90803 8.6235 9.96384 8.23751 10.1087 7.87136L10.8585 8.16431ZM10.6694 9.05357C10.631 9.35933 10.6304 9.65125 10.6747 9.94912L9.87753 10.0661C9.82139 9.68896 9.82339 9.324 9.86967 8.95477L10.6694 9.05357ZM10.6749 9.9503C10.7651 10.5688 10.9312 11.1573 11.1873 11.7375L10.4492 12.0586C10.1631 11.4104 9.97758 10.7524 9.87736 10.0649L10.6749 9.9503ZM11.1877 11.7386C11.4702 12.3836 11.8056 12.9879 12.2414 13.5371L11.6084 14.0322C11.1187 13.4151 10.7506 12.7469 10.4487 12.0575L11.1877 11.7386ZM12.2414 13.5371C12.6425 14.0435 13.093 14.5067 13.61 14.9036L13.117 15.5364C12.5391 15.0927 12.043 14.581 11.6084 14.0322L12.2414 13.5371ZM13.6089 14.9028C14.163 15.3254 14.7688 15.6951 15.4108 16.0028L15.0607 16.7233C14.37 16.3922 13.7168 15.9939 13.118 15.5372L13.6089 14.9028ZM15.4108 16.0028C16.0186 16.2938 16.6678 16.5306 17.3302 16.7646L17.0601 17.5183C16.3977 17.2843 15.7116 17.0349 15.0607 16.7233L15.4108 16.0028ZM17.3302 16.7646C18.0195 17.0083 18.736 17.2065 19.4621 17.396L19.2572 18.1697C18.5262 17.979 17.7829 17.7738 17.0601 17.5183L17.3302 16.7646ZM19.4621 17.396C20.9181 17.7785 22.4098 18.0457 23.9198 18.2235L23.8249 19.018C22.2831 18.8363 20.7548 18.5631 19.2572 18.1697L19.4621 17.396ZM23.9198 18.2235C24.4699 18.2882 25.0216 18.3313 25.5738 18.349L25.5477 19.1485C24.9708 19.13 24.396 19.0851 23.8249 19.018L23.9198 18.2235ZM25.8981 18.9674C25.8633 19.0204 25.8296 19.0723 25.7951 19.1256L25.1175 18.6926C25.1517 18.6398 25.1868 18.5857 25.2233 18.5302L25.8981 18.9674ZM25.7945 19.1266C25.3566 19.7974 24.9007 20.4722 24.3664 21.1119L23.7459 20.6012C24.2483 19.9995 24.6833 19.3579 25.1182 18.6916L25.7945 19.1266ZM24.3585 21.1208C23.3113 22.3018 22.1116 23.3857 20.7857 24.3209L20.3189 23.6687C21.5925 22.7703 22.7462 21.7283 23.7537 20.5922L24.3585 21.1208ZM20.778 24.3261C20.1489 24.7485 19.4943 25.1353 18.817 25.485L18.4452 24.7752C19.0953 24.4396 19.7233 24.0686 20.3264 23.6634L20.778 24.3261ZM18.2356 25.2065C18.1713 24.8786 18.0849 24.5508 17.9894 24.2144L18.765 23.9975C18.8626 24.3413 18.956 24.6937 19.0266 25.0537L18.2356 25.2065ZM17.9891 24.2134C17.8358 23.6674 17.6406 23.1297 17.4022 22.6101L18.1358 22.2786C18.392 22.8375 18.6013 23.4144 18.7653 23.9986L17.9891 24.2134ZM17.4022 22.6101C17.1296 22.014 16.8272 21.4676 16.4129 20.9761L17.0309 20.4627C17.5103 21.0315 17.8478 21.6489 18.1358 22.2786L17.4022 22.6101ZM16.4129 20.9761C16.2142 20.7403 16.0081 20.5273 15.7753 20.3316L16.2959 19.721C16.5708 19.9521 16.8089 20.1993 17.0309 20.4627L16.4129 20.9761ZM15.7733 20.33C15.5449 20.1355 15.2738 19.9607 14.9866 19.7932L15.3947 19.1033C15.6972 19.2798 16.016 19.4827 16.2979 19.7227L15.7733 20.33ZM14.9866 19.7932C14.7133 19.6339 14.4007 19.5223 14.0485 19.3928L14.3285 18.6426C14.6586 18.764 15.0467 18.9006 15.3947 19.1033L14.9866 19.7932ZM14.0504 19.3935C13.7317 19.2781 13.3842 19.2093 13.0202 19.1607L13.1276 18.3678C13.5198 18.4202 13.9312 18.4987 14.3266 18.642L14.0504 19.3935ZM13.0202 19.1607C12.6498 19.1111 12.2869 19.0841 11.9183 19.0841V18.2841C12.3272 18.2841 12.7259 18.3139 13.1276 18.3678L13.0202 19.1607ZM11.9183 19.0841C11.5734 19.0841 11.2287 19.1213 10.8611 19.1653L10.7641 18.3711C11.1317 18.3272 11.52 18.2841 11.9183 18.2841V19.0841ZM10.8611 19.1653C10.1233 19.2547 9.43097 19.4499 8.73304 19.7179L8.44171 18.972C9.18497 18.6866 9.94441 18.4705 10.7641 18.3711L10.8611 19.1653ZM8.73304 19.7179C8.12706 19.9517 7.55194 20.2305 6.99849 20.5524L6.59104 19.8622C7.17998 19.5196 7.79425 19.2218 8.44171 18.972L8.73304 19.7179ZM6.99957 20.5518C6.36608 20.923 5.76959 21.3529 5.29281 21.847L4.71083 21.2936C5.25478 20.73 5.91712 20.2572 6.58996 19.8629L6.99957 20.5518ZM5.29281 21.847C4.8249 22.3321 4.49354 22.8646 4.3162 23.4647L3.54296 23.2395C3.76226 22.4974 4.16858 21.8559 4.71083 21.2936L5.29281 21.847ZM4.31661 23.4633C4.23717 23.7358 4.20946 24.0401 4.20822 24.3519L3.40238 24.3488C3.40378 23.9985 3.43424 23.6124 3.54254 23.2409L4.31661 23.4633ZM4.20821 24.3531C4.20716 24.5055 4.23513 24.6567 4.2671 24.8657L3.47047 24.9863C3.44427 24.8151 3.40079 24.5806 3.40239 24.3476L4.20821 24.3531ZM4.2671 24.8657C4.29316 25.0348 4.33022 25.1927 4.38445 25.3486L3.6228 25.6099C3.55012 25.401 3.50259 25.1947 3.47047 24.9863L4.2671 24.8657ZM4.38496 25.35C4.56869 25.8846 4.93526 26.3551 5.39929 26.8076L4.83453 27.3783C4.3307 26.8869 3.86431 26.3126 3.62229 25.6084L4.38496 25.35ZM5.40146 26.8098C5.58356 26.9901 5.8054 27.1505 6.05255 27.3266L5.58281 27.9766C5.34338 27.8061 5.06806 27.6096 4.83234 27.3761L5.40146 26.8098ZM6.05117 27.3256C6.38869 27.5638 6.73408 27.7757 7.10584 27.9636L6.74018 28.6765C6.32921 28.4688 5.95007 28.2358 5.58419 27.9776L6.05117 27.3256ZM7.1048 27.9631C8.33612 28.581 9.77313 28.8064 11.2226 28.8292L11.2098 29.6291C9.69487 29.6053 8.12258 29.3703 6.74124 28.6771L7.1048 27.9631ZM11.2238 28.8292C11.9505 28.8428 12.6819 28.76 13.4269 28.6547L13.5406 29.4467C12.7862 29.5534 12.0024 29.6439 11.2086 29.629L11.2238 28.8292ZM13.4253 28.6549C14.1544 28.5488 14.875 28.3693 15.5934 28.1611L15.8193 28.929C15.0833 29.1424 14.323 29.3328 13.5423 29.4464L13.4253 28.6549ZM15.5949 28.1607C16.0154 28.0405 16.4328 27.9049 16.846 27.7575L17.1186 28.5103C16.6909 28.6629 16.2568 28.804 15.8179 28.9295L15.5949 28.1607ZM17.384 28.1033C17.3897 28.1766 17.394 28.2489 17.3968 28.3229L16.5916 28.3536C16.5892 28.2905 16.5855 28.2283 16.5806 28.1644L17.384 28.1033ZM17.3968 28.3229C17.4114 28.6967 17.4259 29.0715 17.4404 29.4465L16.6352 29.4776C16.6207 29.1025 16.6062 28.7273 16.5916 28.3536L17.3968 28.3229ZM17.4404 29.4465C17.4669 30.1153 17.3985 30.7901 17.3102 31.4287L16.5117 31.3199C16.5979 30.6965 16.659 30.0761 16.6352 29.4776L17.4404 29.4465ZM17.3088 31.4375C17.0978 32.7459 16.7035 34.0136 16.1491 35.2321L15.4145 34.9027C15.9416 33.7445 16.3142 32.5449 16.513 31.3111L17.3088 31.4375ZM16.1442 35.242C15.6152 36.3245 14.9722 37.349 14.2799 38.3371L13.6182 37.8806C14.2957 36.9136 14.9143 35.9257 15.4193 34.8927L16.1442 35.242ZM14.2799 38.3371C13.9859 38.7577 13.6438 39.2106 13.3568 39.6143L12.6982 39.1533C13.0193 38.7015 13.3119 38.3186 13.6182 37.8806L14.2799 38.3371ZM13.3568 39.6143C13.1644 39.8857 13.0021 40.08 12.8632 40.3144L12.1687 39.9086C12.3286 39.6389 12.5495 39.3629 12.6982 39.1533L13.3568 39.6143ZM12.8632 40.3144C12.7752 40.462 12.6868 40.6084 12.5999 40.7526L11.9082 40.3422C11.996 40.1965 12.0821 40.054 12.1687 39.9086L12.8632 40.3144ZM12.5999 40.7526C12.51 40.9018 12.4321 41.0583 12.3499 41.2307L11.6216 40.8884C11.706 40.7114 11.7972 40.5263 11.9082 40.3422L12.5999 40.7526ZM11.9857 41.0596C11.9872 40.6596 11.9869 40.6596 11.9867 40.6596C11.9866 40.6596 11.9868 40.6596 11.9867 40.6596C11.9863 40.6596 11.9856 40.6596 11.9853 40.6596C11.9847 40.6596 11.9841 40.6596 11.9834 40.6596C11.9822 40.6596 11.9809 40.6596 11.9796 40.6596C11.9768 40.6597 11.9741 40.6597 11.9714 40.6598C11.9658 40.66 11.9597 40.6604 11.9534 40.6609C11.9408 40.6619 11.926 40.6637 11.9095 40.6668C11.8781 40.6728 11.8321 40.6855 11.7824 40.7144C11.7302 40.7448 11.6756 40.7926 11.6362 40.862C11.5968 40.931 11.5841 41.0007 11.5841 41.058H12.3899C12.3899 41.1974 12.3167 41.3307 12.1903 41.4044C12.1404 41.4334 12.094 41.4462 12.0624 41.4523C12.0457 41.4555 12.0308 41.4573 12.0182 41.4583C12.0118 41.4588 12.0057 41.4591 12.0001 41.4593C11.9973 41.4594 11.9946 41.4595 11.9919 41.4595C11.9906 41.4595 11.9893 41.4596 11.988 41.4596C11.9874 41.4596 11.9867 41.4596 11.9861 41.4596C11.9858 41.4596 11.9846 41.4596 11.9843 41.4596C11.9841 41.4596 11.9844 41.4596 11.9843 41.4596C11.9841 41.4596 11.9843 41.4596 11.9857 41.0596ZM12.2946 41.3164C12.2924 41.3189 12.2977 41.313 12.3029 41.3064C12.3074 41.3006 12.327 41.2761 12.3452 41.2405C12.368 41.196 12.3806 41.1508 12.3857 41.1082C12.3892 41.0792 12.3886 41.0524 12.3886 41.0606H11.5828C11.5828 41.0605 11.5828 41.0608 11.5828 41.0606C11.5828 41.0602 11.5828 41.0589 11.5828 41.0581C11.5828 41.0566 11.5829 41.0537 11.583 41.0501C11.5831 41.0433 11.5836 41.0293 11.5858 41.0118C11.591 40.9689 11.6036 40.9233 11.6266 40.8785C11.6449 40.8426 11.6648 40.8178 11.6697 40.8115C11.6732 40.8071 11.6761 40.8036 11.6773 40.8023C11.678 40.8015 11.6791 40.8001 11.6794 40.7997L12.2946 41.3164ZM12.3556 41.2192C12.3445 41.2448 12.3297 41.2765 12.3112 41.3101L11.6047 40.9252C11.6074 40.9205 11.6111 40.9129 11.6158 40.902L12.3556 41.2192ZM11.5981 40.9378C11.6056 40.9228 11.6149 40.9045 11.6244 40.8865L12.3392 41.2559C12.3327 41.2681 12.3261 41.2812 12.3178 41.2975L11.5981 40.9378ZM12.3452 41.2439C12.2903 41.3578 12.2289 41.4849 12.1558 41.612L11.4559 41.2156C11.5124 41.1173 11.5621 41.0151 11.6183 40.8986L12.3452 41.2439ZM12.1558 41.612C12.0694 41.7626 12.0937 41.8977 12.202 41.9949L11.6611 42.588C11.2379 42.2076 11.2064 41.6499 11.4559 41.2156L12.1558 41.612ZM12.2009 41.994C12.3592 42.1353 12.6412 42.1369 12.81 41.9904L13.3409 42.5922C12.8776 42.9945 12.1358 43.0115 11.6623 42.589L12.2009 41.994ZM12.81 41.9904C13.009 41.817 13.2361 41.6591 13.4163 41.5247L13.9004 42.1642C13.6891 42.3218 13.5094 42.4454 13.3409 42.5922L12.81 41.9904ZM13.4083 41.5307C13.4811 41.4736 13.5388 41.412 13.6417 41.3144L14.1985 41.8927C14.1321 41.9557 14.0206 42.0701 13.9083 42.1583L13.4083 41.5307ZM13.6437 41.3126C13.8206 41.147 13.9622 41.0232 14.0901 40.8765L14.7001 41.3994C14.5372 41.5863 14.3475 41.7532 14.1965 41.8946L13.6437 41.3126ZM14.0894 40.8773C14.3139 40.6187 14.5246 40.3872 14.7323 40.1383L15.353 40.6485C15.1402 40.9036 14.9068 41.1612 14.7001 41.3994L14.0894 40.8773ZM14.7323 40.1383C14.9026 39.9344 15.0423 39.7359 15.2227 39.5024L15.8624 39.9889C15.7095 40.1868 15.5344 40.4312 15.353 40.6485L14.7323 40.1383ZM15.2227 39.5024C15.503 39.1388 15.7517 38.7638 16.0268 38.3687L16.6897 38.8236C16.428 39.1994 16.1585 39.6049 15.8624 39.9889L15.2227 39.5024ZM16.0281 38.3669C16.1255 38.2286 16.1983 38.0919 16.3071 37.9112L16.9989 38.3216C16.9147 38.4616 16.8077 38.656 16.6884 38.8254L16.0281 38.3669ZM16.3112 37.9047C16.4483 37.6865 16.5676 37.5157 16.6686 37.3265L17.3807 37.7011C17.2621 37.9232 17.1064 38.1507 16.995 38.3281L16.3112 37.9047ZM16.6671 37.3294C16.9522 36.7848 17.2344 36.2541 17.4828 35.7114L18.2165 36.0423C17.9572 36.6089 17.663 37.1618 17.3822 37.6983L16.6671 37.3294ZM17.4821 35.7128C17.9976 34.5744 18.3384 33.3771 18.529 32.1524L19.3255 32.2746C19.1247 33.5637 18.7648 34.831 18.2172 36.0408L17.4821 35.7128ZM18.529 32.1524C18.683 31.1689 18.7546 30.1847 18.7086 29.2012L19.5135 29.1632C19.5626 30.2098 19.4861 31.2486 19.3255 32.2746L18.529 32.1524ZM18.7086 29.2012C18.6856 28.7315 18.6717 28.2892 18.6244 27.8464L19.4258 27.7619C19.4763 28.2346 19.4915 28.7123 19.5135 29.1632L18.7086 29.2012ZM18.6244 27.8464C18.6072 27.6818 18.5902 27.5185 18.5718 27.3576L19.3726 27.268C19.3914 27.4329 19.4087 27.598 19.4258 27.7619L18.6244 27.8464ZM18.8002 26.9511C19.0508 26.8336 19.2975 26.7104 19.5451 26.5836L19.9145 27.2946C19.6624 27.4238 19.4066 27.5515 19.1443 27.6745L18.8002 26.9511ZM19.5436 26.5844C20.7534 25.9581 21.8817 25.1858 22.9189 24.3355L23.432 24.9523C22.359 25.8321 21.184 26.6374 19.9162 27.2938L19.5436 26.5844ZM22.9189 24.3355C23.9619 23.4804 24.9096 22.5346 25.7619 21.522L26.3808 22.0343C25.4983 23.0828 24.5152 24.0643 23.432 24.9523L22.9189 24.3355ZM25.7619 21.522C26.2553 20.9336 26.6658 20.2974 27.0988 19.6342L27.775 20.0693C27.3486 20.7224 26.9108 21.4021 26.3808 22.0343L25.7619 21.522ZM27.0982 19.6351C27.3515 19.245 27.5956 18.8561 27.822 18.4616L28.5222 18.8575C28.2857 19.2699 28.0328 19.6724 27.7756 20.0684L27.0982 19.6351ZM28.139 18.2609C28.1613 18.2591 28.185 18.2562 28.218 18.2522L28.3165 19.0462C28.286 19.0499 28.2462 19.0548 28.205 19.0582L28.139 18.2609ZM28.2234 18.2516C28.9449 18.173 29.6549 18.0553 30.3549 17.8937L30.5375 18.6728C29.8043 18.8422 29.0625 18.965 28.3112 19.0468L28.2234 18.2516ZM30.3538 17.8939C31.0799 17.724 31.7945 17.4976 32.5039 17.2481L32.7737 18.0018C32.0498 18.2565 31.3041 18.4934 30.5387 18.6726L30.3538 17.8939ZM32.5039 17.2481C33.865 16.7662 35.1672 16.1658 36.4106 15.4736L36.8047 16.1714C35.5254 16.8836 34.1812 17.5036 32.7737 18.0018L32.5039 17.2481ZM36.4106 15.4736C38.8163 14.1354 40.9915 12.4521 42.9192 10.5899L43.4811 11.1632C41.511 13.0664 39.2806 14.7942 36.8047 16.1714L36.4106 15.4736ZM42.9192 10.5899C43.8696 9.67191 44.7425 8.68703 45.5561 7.66372L46.1886 8.15928C45.3573 9.20488 44.4611 10.2166 43.4811 11.1632L42.9192 10.5899ZM45.5561 7.66372C46.3646 6.64622 47.0561 5.56649 47.5967 4.42463L48.326 4.76497C47.7561 5.96874 47.0302 7.1001 46.1886 8.15928L45.5561 7.66372ZM47.5973 4.42369C48.1499 3.26448 48.5593 2.05968 48.805 0.823093L49.5956 0.977901C49.3362 2.28349 48.9047 3.55103 48.3256 4.76591L47.5973 4.42369ZM48.805 0.823093C49.0524 -0.414253 49.1123 -1.67809 49.0348 -2.94277L49.8391 -2.99141C49.9202 -1.66994 49.8585 -0.33728 49.5956 0.977901L48.805 0.823093ZM49.0348 -2.94277C48.9575 -4.22752 48.7084 -5.52193 48.3669 -6.78529L49.1452 -6.99276C49.4965 -5.69324 49.7577 -4.34453 49.8391 -2.99141L49.0348 -2.94277ZM48.3669 -6.78529C48.0275 -8.03957 47.5603 -9.26252 46.9951 -10.4572L47.7245 -10.7973C48.3069 -9.56619 48.7917 -8.29876 49.1452 -6.99276L48.3669 -6.78529ZM46.9951 -10.4572C45.879 -12.8186 44.2405 -14.9437 42.2531 -16.807L42.8064 -17.3886C44.8545 -15.4684 46.5584 -13.2642 47.7245 -10.7973L46.9951 -10.4572ZM42.2531 -16.807C41.1761 -17.8209 39.9753 -18.735 38.7128 -19.5769L39.162 -20.241C40.4514 -19.3812 41.6886 -18.441 42.8064 -17.3886L42.2531 -16.807ZM38.7119 -19.5775C37.4463 -20.426 36.0889 -21.1638 34.6516 -21.7473L34.9561 -22.488C36.449 -21.8819 37.8556 -21.1169 39.1629 -20.2404L38.7119 -19.5775ZM34.6516 -21.7473C33.1756 -22.344 31.6177 -22.8248 30.0339 -23.0697L30.1579 -23.8601C31.8187 -23.6033 33.4388 -23.1015 34.9561 -22.488L34.6516 -21.7473ZM30.0339 -23.0697C29.4276 -23.1635 28.8135 -23.211 28.1999 -23.211V-24.011C28.8554 -24.011 29.5108 -23.9603 30.1579 -23.8601L30.0339 -23.0697ZM28.1999 -23.211C28.0204 -23.211 27.8409 -23.2073 27.6615 -23.1997L27.6275 -23.999C27.8182 -24.007 28.0091 -24.011 28.1999 -24.011V-23.211Z" fill="white"/>
                </g>
            </g>
        </g>
        <path d="M51.3048 15.9644H51.1537V16.1144V18.4001V18.5501H51.3048H56.7909L56.7639 22.7861C56.5641 22.949 56.3087 23.1519 55.9975 23.3948C55.6721 23.6301 55.223 23.8521 54.6445 24.0582C54.0774 24.2414 53.3174 24.3358 52.3584 24.3358C50.959 24.3358 49.714 24.0179 48.6195 23.3852C47.5221 22.7318 46.658 21.8555 46.0256 20.7544C45.3944 19.6555 45.0773 18.4054 45.0773 17.0001C45.0773 15.5948 45.3944 14.3447 46.0256 13.2458L46.0261 13.2449C46.6586 12.1249 47.5224 11.2493 48.6186 10.6154C49.7133 9.98245 50.9586 9.66439 52.3584 9.66439C53.3123 9.66439 54.1171 9.80522 54.7771 10.0812L54.7818 10.0831C55.4746 10.3461 56.0703 10.6548 56.5706 11.0081L56.5727 11.0095C57.1033 11.3707 57.5765 11.7031 57.9925 12.0067L58.2332 12.1822V11.8858V9.05724V8.99161L58.1846 8.94708C57.5068 8.32529 56.7139 7.82111 55.8072 7.43396C54.9083 7.04192 53.7561 6.8501 52.3584 6.8501C50.8967 6.8501 49.5471 7.12029 48.3116 7.66251C47.0794 8.18424 46 8.90931 45.075 9.83746C44.1497 10.7658 43.4272 11.8488 42.9073 13.0852L42.9068 13.0863C42.4055 14.3053 42.1553 15.6104 42.1553 17.0001C42.1553 18.3898 42.4055 19.7042 42.9065 20.9418L42.9076 20.9444C43.4276 22.1616 44.1501 23.2348 45.075 24.1627C45.9999 25.0907 47.0789 25.8251 48.3107 26.3659L48.3125 26.3667C49.5478 26.8896 50.8971 27.1501 52.3584 27.1501C53.4913 27.1501 54.5318 27.0056 55.4784 26.7148L55.4802 26.7142C56.4398 26.4062 57.2871 26.0202 58.0209 25.5551L58.0234 25.5536C58.7522 25.0724 59.3509 24.5791 59.8168 24.0727L59.8562 24.0297V23.9715V16.1144V15.9644H59.7052H51.3048Z" fill="#1C1C1C" stroke="#1C1C1C" stroke-width="0.1"/>
        <path d="M69.0853 11.0708C70.6542 11.0708 71.9581 11.3945 72.9972 12.0417C74.0364 12.689 74.8107 13.5689 75.3201 14.6814C75.8498 15.7939 76.1146 17.048 76.1146 18.4437V19.9304H64.3786C64.5009 20.78 64.7963 21.5587 65.2649 22.2667C65.7336 22.9747 66.3448 23.541 67.0987 23.9658C67.8526 24.3704 68.7185 24.5726 69.6965 24.5726C70.7968 24.5726 71.8258 24.2996 72.7834 23.7534C73.7409 23.1871 74.5458 22.5701 75.1978 21.9026L75.1673 24.603C74.882 24.9468 74.4541 25.3109 73.8836 25.6953C73.3335 26.0593 72.6916 26.3628 71.9581 26.6055C71.245 26.8684 70.4912 26.9999 69.6965 26.9999C68.148 26.9999 66.7727 26.6358 65.5705 25.9076C64.3684 25.1795 63.4211 24.2187 62.7282 23.0252C62.0559 21.8116 61.7197 20.4867 61.7197 19.0505C61.7197 17.6144 62.0355 16.2895 62.6671 15.0759C63.2988 13.8622 64.1647 12.8913 65.2649 12.1631C66.3855 11.4349 67.6591 11.0708 69.0853 11.0708ZM69.0853 13.4981C67.822 13.4981 66.7829 13.9229 65.9679 14.7724C65.1529 15.6018 64.6435 16.6131 64.4397 17.8066H73.6391C73.5373 16.8154 73.252 16.0063 72.7834 15.3793C72.3351 14.7522 71.785 14.287 71.1329 13.9836C70.481 13.6599 69.7984 13.4981 69.0853 13.4981Z" fill="#1C1C1C"/>
        <path d="M85.8957 11.0708C87.4443 11.0708 88.8196 11.4349 90.0217 12.1631C91.2239 12.8913 92.1612 13.8622 92.8335 15.0759C93.5262 16.2895 93.8726 17.6144 93.8726 19.0505C93.8726 20.4867 93.5262 21.8116 92.8335 23.0252C92.1612 24.2187 91.2239 25.1795 90.0217 25.9076C88.8196 26.6358 87.4443 26.9999 85.8957 26.9999C84.3472 26.9999 82.972 26.6358 81.7698 25.9076C80.5676 25.1795 79.6203 24.2187 78.9275 23.0252C78.2551 21.8116 77.9189 20.4867 77.9189 19.0505C77.9189 17.6144 78.2551 16.2895 78.9275 15.0759C79.6203 13.8622 80.5676 12.8913 81.7698 12.1631C82.972 11.4349 84.3472 11.0708 85.8957 11.0708ZM85.8957 13.4981C84.8159 13.4981 83.8685 13.7611 83.0534 14.287C82.2384 14.7927 81.6068 15.4703 81.1585 16.3198C80.7307 17.1492 80.5168 18.0594 80.5168 19.0505C80.5168 20.0215 80.7307 20.9317 81.1585 21.7812C81.6068 22.6106 82.2384 23.2882 83.0534 23.8141C83.8685 24.3198 84.8159 24.5726 85.8957 24.5726C86.996 24.5726 87.9435 24.3198 88.738 23.8141C89.553 23.2882 90.1746 22.6106 90.6025 21.7812C91.0507 20.9317 91.2748 20.0215 91.2748 19.0505C91.2748 18.0594 91.0507 17.1492 90.6025 16.3198C90.1746 15.4703 89.553 14.7927 88.738 14.287C87.9435 13.7611 86.996 13.4981 85.8957 13.4981Z" fill="#1C1C1C"/>
        <path d="M99.2532 11.3742V13.3161C99.7423 12.7699 100.364 12.2642 101.118 11.799C101.892 11.3136 102.798 11.0708 103.838 11.0708C104.938 11.0708 105.967 11.3338 106.924 11.8597C107.882 12.3654 108.615 13.134 109.125 14.1656C109.838 13.3161 110.613 12.5879 111.448 11.9811C112.283 11.3742 113.261 11.0708 114.382 11.0708C115.421 11.0708 116.389 11.3034 117.285 11.7687C118.202 12.2137 118.936 12.9014 119.486 13.8319C120.056 14.7421 120.341 15.8951 120.341 17.2908V26.5448H117.835L117.805 17.5335C117.805 16.2187 117.458 15.2174 116.765 14.5297C116.093 13.842 115.156 13.4981 113.954 13.4981C113.078 13.4981 112.314 13.7712 111.661 14.3173C111.01 14.8635 110.388 15.5006 109.798 16.2288V26.5448H107.292L107.26 17.5335C107.26 16.2187 106.914 15.2174 106.222 14.5297C105.549 13.842 104.612 13.4981 103.41 13.4981C102.575 13.4981 101.81 13.7408 101.118 14.2263C100.445 14.7118 99.8238 15.2984 99.2532 15.9861V26.5448H96.7471V11.3742H99.2532Z" fill="#1C1C1C"/>
        <path d="M130.123 11.0708C130.998 11.0708 131.884 11.2832 132.781 11.708C133.698 12.1125 134.482 12.6789 135.135 13.4071V11.3742H137.641V26.5448H135.135V23.9658C134.605 24.7749 133.882 25.4829 132.964 26.0897C132.068 26.6965 131.039 26.9999 129.878 26.9999C128.574 26.9999 127.382 26.6763 126.302 26.029C125.222 25.3615 124.356 24.4412 123.704 23.268C123.073 22.0948 122.756 20.7395 122.756 19.2022C122.756 17.5234 123.073 16.0771 123.704 14.8635C124.356 13.6498 125.242 12.7194 126.363 12.0721C127.484 11.4046 128.737 11.0708 130.123 11.0708ZM130.581 13.4981C129.48 13.4981 128.543 13.7712 127.769 14.3173C126.995 14.8635 126.394 15.5714 125.966 16.4412C125.559 17.2908 125.354 18.2111 125.354 19.2022C125.354 20.1732 125.559 21.0733 125.966 21.9026C126.374 22.7117 126.944 23.359 127.677 23.8444C128.431 24.3299 129.297 24.5726 130.275 24.5726C131.213 24.5726 132.048 24.3299 132.781 23.8444C133.514 23.359 134.096 22.6915 134.524 21.8419C134.951 20.9721 135.155 20.0012 135.135 18.9292L135.104 16.0164C134.472 15.2276 133.79 14.6106 133.056 14.1656C132.343 13.7206 131.518 13.4981 130.581 13.4981Z" fill="#1C1C1C"/>
    </g>
    <defs>
        <filter id="filter0_d_915_2184" x="3.40234" y="-24.011" width="46.8702" height="67.3109" filterUnits="userSpaceOnUse" color-interpolation-filters="sRGB">
            <feFlood flood-opacity="0" result="BackgroundImageFix"/>
            <feColorMatrix in="SourceAlpha" type="matrix" values="0 0 0 0 0 0 0 0 0 0 0 0 0 0 0 0 0 0 127 0" result="hardAlpha"/>
            <feOffset dx="0.4" dy="0.4"/>
            <feComposite in2="hardAlpha" operator="out"/>
            <feColorMatrix type="matrix" values="0 0 0 0 0 0 0 0 0 0 0 0 0 0 0 0 0 0 0.2 0"/>
            <feBlend mode="normal" in2="BackgroundImageFix" result="effect1_dropShadow_915_2184"/>
            <feBlend mode="normal" in="SourceGraphic" in2="effect1_dropShadow_915_2184" result="shape"/>
        </filter>
        <clipPath id="clip0_915_2184">
            <rect width="138" height="34" fill="white"/>
        </clipPath>
    </defs>
</svg>
